<?xml version="1.0" encoding="utf-8"?>
<!-- Generator: Adobe Illustrator 24.0.3, SVG Export Plug-In . SVG Version: 6.00 Build 0)  -->
<!DOCTYPE svg PUBLIC "-//W3C//DTD SVG 1.1//EN" "http://www.w3.org/Graphics/SVG/1.1/DTD/svg11.dtd" [
	<!ENTITY ns_extend "http://ns.adobe.com/Extensibility/1.0/">
	<!ENTITY ns_ai "http://ns.adobe.com/AdobeIllustrator/10.0/">
	<!ENTITY ns_graphs "http://ns.adobe.com/Graphs/1.0/">
	<!ENTITY ns_vars "http://ns.adobe.com/Variables/1.0/">
	<!ENTITY ns_imrep "http://ns.adobe.com/ImageReplacement/1.0/">
	<!ENTITY ns_sfw "http://ns.adobe.com/SaveForWeb/1.0/">
	<!ENTITY ns_custom "http://ns.adobe.com/GenericCustomNamespace/1.0/">
	<!ENTITY ns_adobe_xpath "http://ns.adobe.com/XPath/1.0/">
]>
<svg version="1.1" id="Layer_1" xmlns:x="&ns_extend;" xmlns:i="&ns_ai;" xmlns:graph="&ns_graphs;"
	 xmlns="http://www.w3.org/2000/svg" xmlns:xlink="http://www.w3.org/1999/xlink" x="0px" y="0px" viewBox="0 0 122.9 106.8"
	 style="enable-background:new 0 0 122.9 106.8;" xml:space="preserve">
<style type="text/css">
	.st0{fill:#011627;}
</style>
<metadata  id="CorelCorpID_0Corel-Layer">
	<sfw  xmlns="&ns_sfw;">
		<slices></slices>
		<sliceSourceBounds  bottomLeftOrigin="true" height="106.8" width="122.9" x="68.2" y="76.2"></sliceSourceBounds>
	</sfw>
</metadata>
<path class="st0" d="M2.3,0.5l118-0.5c0.5,0,0.9,0.1,1.4,0.3c1.1,0.7,1.5,2.1,0.9,3.3l-59.5,102c-0.3,0.6-0.9,1.1-1.7,1.2
	c-1.3,0.2-2.5-0.6-2.8-1.9L47.8,44.3L0.8,4.7c-1-0.8-1.1-2.3-0.3-3.4C1,0.8,1.6,0.5,2.3,0.5L2.3,0.5z M113.9,9L52.7,44.4l9.5,53.3
	C62.2,97.6,113.9,9,113.9,9z M111.5,4.8L8.8,5.3l41.4,34.9L111.5,4.8z"/>
</svg>
